<?xml version="1.0" standalone="no"?>
<!DOCTYPE svg PUBLIC "-//W3C//DTD SVG 20010904//EN"
 "http://www.w3.org/TR/2001/REC-SVG-20010904/DTD/svg10.dtd">
<svg version="1.0" xmlns="http://www.w3.org/2000/svg"
 width="854.000000pt" height="854.000000pt" viewBox="0 0 854.000000 854.000000"
 preserveAspectRatio="xMidYMid meet">
<metadata>
Created by potrace 1.11, written by Peter Selinger 2001-2013
</metadata>
<g transform="translate(0.000000,854.000000) scale(0.100000,-0.100000)"
fill="#000000" stroke="none">
<path d="M3849 6866 c-2 -2 -40 -7 -85 -10 -81 -7 -119 -12 -162 -22 -13 -2
-43 -7 -65 -10 -23 -3 -60 -10 -82 -16 -22 -5 -47 -11 -55 -13 -157 -30 -420
-134 -599 -237 -72 -42 -166 -103 -181 -118 -3 -3 -25 -21 -50 -40 -148 -114
-292 -273 -417 -460 -54 -81 -167 -304 -207 -410 -51 -134 -107 -361 -122
-495 -3 -33 -9 -69 -12 -80 -3 -11 -8 -640 -9 -1397 l-4 -1378 644 0 643 0 1
1268 c0 697 2 1290 3 1317 21 384 230 691 560 823 187 74 426 88 640 36 86
-21 240 -94 310 -147 178 -134 304 -344 344 -572 17 -95 20 -287 20 -1447 l1
-1278 643 0 643 0 -4 1378 c-2 757 -7 1397 -11 1422 -4 25 -14 85 -22 134 -89
531 -368 1009 -763 1309 -285 216 -661 367 -1041 417 -47 6 -98 14 -115 16
-37 7 -440 15 -446 10z"/>
<path d="M6665 2513 l0 -328 328 -3 327 -2 0 330 0 330 -328 0 -327 0 0 -327z"/>
</g>
</svg>
